# xmcd
#
# Track frame offsets:
#	150
#	53490
#	83315
#	96255
#	111015
#	125967
#	143285
#	163950
#
# Disc length: 2896 seconds
#
# Revision: 0
# Processed by: cddbd v1.5.1PL2 Copyright (c) Steve Scherf et al.
# Submitted via: dBpowerAMP V4.0
#
DISCID=5e0b4e08
DTITLE=Yoshizawa Motoharu - Outfit (Bass Solo 2 1/2)
DYEAR=2000
DGENRE=
TTITLE0=Outfit 1/Spiral
TTITLE1=Beans Dance
TTITLE2=Hiccup
TTITLE3=Dstance
TTITLE4=Cossings
TTITLE5=Soft Nothings
TTITLE6=Ryuren <>*
TTITLE7=Outfit 2/Rota
EXTD=
EXTT0=
EXTT1=
EXTT2=
EXTT3=
EXTT4=
EXTT5=
EXTT6=
EXTT7=
PLAYORDER=
